<svg version="1.1" id="Layer_1" xmlns="http://www.w3.org/2000/svg" xmlns:xlink="http://www.w3.org/1999/xlink" x="0px" y="0px"
	 width="100%" viewBox="0 0 1080 1350" enable-background="new 0 0 1080 1350" xml:space="preserve">
<path fill="#000000" opacity="1.000000" stroke="none" 
	d="
M514.000000,1351.000000 
	C342.666656,1351.000000 171.833328,1351.000000 1.000000,1351.000000 
	C1.000000,901.000000 1.000000,451.000000 1.000000,1.000000 
	C361.000000,1.000000 721.000000,1.000000 1081.000000,1.000000 
	C1081.000000,451.000000 1081.000000,901.000000 1081.000000,1351.000000 
	C892.166687,1351.000000 703.333313,1351.000000 514.000000,1351.000000 
M626.997620,1050.506592 
	C641.414062,1043.442139 655.850830,1036.418823 670.241882,1029.303101 
	C690.080627,1019.493713 709.875061,1009.594849 729.707092,999.771912 
	C745.083740,992.155762 760.477173,984.573120 775.884705,977.019531 
	C791.595703,969.317139 807.292847,961.584534 823.070190,954.019592 
	C839.261841,946.256042 855.575439,938.747009 871.777100,931.003967 
	C892.228210,921.230042 912.658508,911.410889 933.024292,901.460876 
	C947.750366,894.266235 962.272949,886.651245 977.058167,879.583191 
	C982.856812,876.811279 985.054077,872.724731 985.051392,866.519470 
	C984.987366,717.367920 984.982239,568.216431 985.073120,419.064911 
	C985.076782,413.126495 982.308228,409.305084 977.739868,406.356232 
	C976.287354,405.418640 974.423218,405.146576 972.851074,404.362244 
	C952.732422,394.325134 932.695312,384.122437 912.509155,374.223572 
	C894.961426,365.618591 877.217041,357.415833 859.621704,348.906677 
	C843.162720,340.946991 826.748840,332.891663 810.381348,324.745392 
	C790.107117,314.654694 769.967285,304.292328 749.645508,294.299347 
	C732.105591,285.674316 714.351746,277.485626 696.767151,268.950134 
	C680.026245,260.824097 663.402649,252.457001 646.689575,244.273254 
	C630.689453,236.438599 614.620422,228.744934 598.619080,220.912918 
	C582.001892,212.779480 565.428650,204.556290 548.837952,196.368774 
	C540.913818,192.458221 532.802673,191.263901 524.476013,194.961349 
	C515.388794,198.996506 506.244110,202.928299 497.330536,207.323090 
	C477.019348,217.337479 456.901489,227.744415 436.577271,237.731812 
	C419.037964,246.350677 401.278046,254.519531 383.697083,263.055054 
	C366.959778,271.180969 350.350708,279.570618 333.643005,287.758057 
	C317.645020,295.597656 301.563721,303.267395 285.571320,311.118256 
	C263.668182,321.870819 241.830856,332.757294 219.934128,343.522949 
	C203.826477,351.442413 187.662186,359.246643 171.535355,367.127228 
	C154.532883,375.435730 137.522293,383.728180 120.559746,392.117645 
	C111.460510,396.618011 102.565781,401.545502 93.370354,405.833282 
	C86.528946,409.023407 83.998650,412.089111 83.998627,419.302460 
	C83.998146,568.453979 83.998276,717.605530 83.998268,866.757080 
	C83.998268,867.423645 83.947029,868.094910 84.006607,868.756104 
	C84.389633,873.007385 85.857910,876.521362 90.011604,878.553955 
	C107.179886,886.954712 124.256409,895.544556 141.468430,903.854065 
	C164.330994,914.891357 187.312057,925.682922 210.197113,936.674072 
	C226.231354,944.374939 242.237930,952.136536 258.170898,960.044312 
	C278.601532,970.184448 298.890533,980.610657 319.344238,990.703552 
	C336.730927,999.283020 354.274567,1007.543945 371.730103,1015.984436 
	C388.324890,1024.008545 404.917297,1032.038208 421.470825,1040.146973 
	C438.760651,1048.616455 456.011200,1057.166260 473.263580,1065.712036 
	C490.960327,1074.477661 508.638489,1083.280884 526.324768,1092.067749 
	C531.409668,1094.593994 536.799866,1094.900513 541.808044,1092.579834 
	C551.391418,1088.139160 560.680481,1083.068237 570.163940,1078.405762 
	C588.875122,1069.206665 607.635620,1060.107666 626.997620,1050.506592 
z"/>
<path fill="#FEFEFF" opacity="1.000000" stroke="none" 
	d="
M626.686646,1050.736938 
	C607.635620,1060.107666 588.875122,1069.206665 570.163940,1078.405762 
	C560.680481,1083.068237 551.391418,1088.139160 541.808044,1092.579834 
	C536.799866,1094.900513 531.409668,1094.593994 526.324768,1092.067749 
	C508.638489,1083.280884 490.960327,1074.477661 473.263580,1065.712036 
	C456.011200,1057.166260 438.760651,1048.616455 421.470825,1040.146973 
	C404.917297,1032.038208 388.324890,1024.008545 371.730103,1015.984436 
	C354.274567,1007.543945 336.730927,999.283020 319.344238,990.703552 
	C298.890533,980.610657 278.601532,970.184448 258.170898,960.044312 
	C242.237930,952.136536 226.231354,944.374939 210.197113,936.674072 
	C187.312057,925.682922 164.330994,914.891357 141.468430,903.854065 
	C124.256409,895.544556 107.179886,886.954712 90.011604,878.553955 
	C85.857910,876.521362 84.389633,873.007385 84.006607,868.756104 
	C83.947029,868.094910 83.998268,867.423645 83.998268,866.757080 
	C83.998276,717.605530 83.998146,568.453979 83.998627,419.302460 
	C83.998650,412.089111 86.528946,409.023407 93.370354,405.833282 
	C102.565781,401.545502 111.460510,396.618011 120.559746,392.117645 
	C137.522293,383.728180 154.532883,375.435730 171.535355,367.127228 
	C187.662186,359.246643 203.826477,351.442413 219.934128,343.522949 
	C241.830856,332.757294 263.668182,321.870819 285.571320,311.118256 
	C301.563721,303.267395 317.645020,295.597656 333.643005,287.758057 
	C350.350708,279.570618 366.959778,271.180969 383.697083,263.055054 
	C401.278046,254.519531 419.037964,246.350677 436.577271,237.731812 
	C456.901489,227.744415 477.019348,217.337479 497.330536,207.323090 
	C506.244110,202.928299 515.388794,198.996506 524.476013,194.961349 
	C532.802673,191.263901 540.913818,192.458221 548.837952,196.368774 
	C565.428650,204.556290 582.001892,212.779480 598.619080,220.912918 
	C614.620422,228.744934 630.689453,236.438599 646.689575,244.273254 
	C663.402649,252.457001 680.026245,260.824097 696.767151,268.950134 
	C714.351746,277.485626 732.105591,285.674316 749.645508,294.299347 
	C769.967285,304.292328 790.107117,314.654694 810.381348,324.745392 
	C826.748840,332.891663 843.162720,340.946991 859.621704,348.906677 
	C877.217041,357.415833 894.961426,365.618591 912.509155,374.223572 
	C932.695312,384.122437 952.732422,394.325134 972.851074,404.362244 
	C974.423218,405.146576 976.287354,405.418640 977.739868,406.356232 
	C982.308228,409.305084 985.076782,413.126495 985.073120,419.064911 
	C984.982239,568.216431 984.987366,717.367920 985.051392,866.519470 
	C985.054077,872.724731 982.856812,876.811279 977.058167,879.583191 
	C962.272949,886.651245 947.750366,894.266235 933.024292,901.460876 
	C912.658508,911.410889 892.228210,921.230042 871.777100,931.003967 
	C855.575439,938.747009 839.261841,946.256042 823.070190,954.019592 
	C807.292847,961.584534 791.595703,969.317139 775.884705,977.019531 
	C760.477173,984.573120 745.083740,992.155762 729.707092,999.771912 
	C709.875061,1009.594849 690.080627,1019.493713 670.241882,1029.303101 
	C655.850830,1036.418823 641.414062,1043.442139 626.686646,1050.736938 
M781.376648,527.883362 
	C705.922363,564.741943 630.478333,601.621521 554.981750,638.393311 
	C551.439758,640.118591 549.893616,641.984802 549.897827,646.210510 
	C550.031799,780.036804 550.007874,913.863281 550.007874,1047.689697 
	C550.007874,1049.437988 550.007874,1051.186279 550.007874,1053.721436 
	C552.476624,1052.640503 554.127136,1051.983643 555.720886,1051.209839 
	C574.607422,1042.038696 593.498901,1032.877563 612.363586,1023.661499 
	C724.302795,968.975342 836.225952,914.256165 948.210388,859.662842 
	C952.004700,857.813049 953.499939,855.789429 953.495789,851.428223 
	C953.368408,717.768555 953.391907,584.108765 953.391968,450.448975 
	C953.391968,448.663940 953.391968,446.878906 953.391968,443.833832 
	C895.625000,472.063080 838.839661,499.812622 781.376648,527.883362 
M421.228027,560.327820 
	C457.448303,578.036682 493.681915,595.718445 529.864685,613.503540 
	C532.933411,615.011963 535.447327,615.358032 538.724243,613.753784 
	C669.469055,549.748474 800.262756,485.842896 931.043823,421.911499 
	C932.299133,421.297791 933.469421,420.510162 935.077148,419.571503 
	C933.026428,418.534424 931.554871,417.767517 930.064270,417.039795 
	C893.100403,398.993317 856.131958,380.956207 819.169495,362.906921 
	C725.614563,317.222687 632.057251,271.543427 538.532776,225.796860 
	C535.776978,224.448883 533.634827,224.223160 530.709351,225.667908 
	C501.143402,240.269028 471.480499,254.673798 441.846649,269.137482 
	C346.936005,315.461426 252.025253,361.785095 157.117767,408.115479 
	C149.528091,411.820496 141.962891,415.575684 133.484680,419.751678 
	C229.696533,466.756470 325.124634,513.378296 421.228027,560.327820 
M430.723846,597.737854 
	C326.042908,546.603638 221.361969,495.469452 115.654587,443.833862 
	C115.654587,446.850677 115.654579,448.620544 115.654587,450.390411 
	C115.654655,584.187378 115.671898,717.984314 115.569153,851.781250 
	C115.566162,855.661011 116.685303,857.663513 120.251526,859.380310 
	C147.860901,872.671326 175.355209,886.201355 202.887268,899.653015 
	C306.575684,950.313416 410.264404,1000.973206 513.959167,1051.620605 
	C515.376953,1052.313110 516.875061,1052.841064 518.781494,1053.630493 
	C518.882507,1051.441406 519.008728,1049.981567 519.008789,1048.521729 
	C519.017944,914.224915 519.000000,779.928040 519.106873,645.631287 
	C519.109863,641.844604 517.755066,640.123779 514.494690,638.550354 
	C486.745331,625.158936 459.084106,611.584900 430.723846,597.737854 
z"/>
<path fill="#654FF0" opacity="1.000000" stroke="none" 
	d="
M781.715454,527.722778 
	C838.839661,499.812622 895.625000,472.063080 953.391968,443.833832 
	C953.391968,446.878906 953.391968,448.663940 953.391968,450.448975 
	C953.391907,584.108765 953.368408,717.768555 953.495789,851.428223 
	C953.499939,855.789429 952.004700,857.813049 948.210388,859.662842 
	C836.225952,914.256165 724.302795,968.975342 612.363586,1023.661499 
	C593.498901,1032.877563 574.607422,1042.038696 555.720886,1051.209839 
	C554.127136,1051.983643 552.476624,1052.640503 550.007874,1053.721436 
	C550.007874,1051.186279 550.007874,1049.437988 550.007874,1047.689697 
	C550.007874,913.863281 550.031799,780.036804 549.897827,646.210510 
	C549.893616,641.984802 551.439758,640.118591 554.981750,638.393311 
	C630.478333,601.621521 705.922363,564.741943 781.715454,527.722778 
z"/>
<path fill="#654FF0" opacity="1.000000" stroke="none" 
	d="
M420.890381,560.164001 
	C325.124634,513.378296 229.696533,466.756470 133.484680,419.751678 
	C141.962891,415.575684 149.528091,411.820496 157.117767,408.115479 
	C252.025253,361.785095 346.936005,315.461426 441.846649,269.137482 
	C471.480499,254.673798 501.143402,240.269028 530.709351,225.667908 
	C533.634827,224.223160 535.776978,224.448883 538.532776,225.796860 
	C632.057251,271.543427 725.614563,317.222687 819.169495,362.906921 
	C856.131958,380.956207 893.100403,398.993317 930.064270,417.039795 
	C931.554871,417.767517 933.026428,418.534424 935.077148,419.571503 
	C933.469421,420.510162 932.299133,421.297791 931.043823,421.911499 
	C800.262756,485.842896 669.469055,549.748474 538.724243,613.753784 
	C535.447327,615.358032 532.933411,615.011963 529.864685,613.503540 
	C493.681915,595.718445 457.448303,578.036682 420.890381,560.164001 
z"/>
<path fill="#6650F0" opacity="1.000000" stroke="none" 
	d="
M431.060150,597.901733 
	C459.084106,611.584900 486.745331,625.158936 514.494690,638.550354 
	C517.755066,640.123779 519.109863,641.844604 519.106873,645.631287 
	C519.000000,779.928040 519.017944,914.224915 519.008789,1048.521729 
	C519.008728,1049.981567 518.882507,1051.441406 518.781494,1053.630493 
	C516.875061,1052.841064 515.376953,1052.313110 513.959167,1051.620605 
	C410.264404,1000.973206 306.575684,950.313416 202.887268,899.653015 
	C175.355209,886.201355 147.860901,872.671326 120.251526,859.380310 
	C116.685303,857.663513 115.566162,855.661011 115.569153,851.781250 
	C115.671898,717.984314 115.654655,584.187378 115.654587,450.390411 
	C115.654579,448.620544 115.654587,446.850677 115.654587,443.833862 
	C221.361969,495.469452 326.042908,546.603638 431.060150,597.901733 
M315.327271,846.224854 
	C313.624817,843.365601 312.073395,840.402771 310.195221,837.664062 
	C298.807129,821.058228 284.154572,808.675110 264.253967,803.732239 
	C245.402420,799.049988 230.541061,807.966125 225.990540,826.794250 
	C220.674652,848.789185 224.834579,869.518860 236.339355,888.701660 
	C248.212311,908.498474 264.680908,922.584534 287.909180,927.322144 
	C303.295380,930.460266 316.878632,922.075317 320.929321,907.083923 
	C321.278778,905.790649 321.024689,903.315674 320.242310,902.895630 
	C313.710052,899.388245 306.988159,896.234070 300.384796,893.003296 
	C293.383118,904.842896 286.341858,907.072754 274.152405,901.749573 
	C272.934814,901.217957 271.747101,900.605530 270.586975,899.956482 
	C250.624588,888.788635 240.730042,863.544250 247.381104,840.780945 
	C250.938110,828.607056 259.221222,824.212585 271.160767,828.490906 
	C286.589355,834.019531 296.102478,845.074341 300.576874,860.703308 
	C301.056122,862.377319 301.602814,864.708679 302.846252,865.373596 
	C309.260773,868.803955 315.912628,871.790344 323.137695,875.245300 
	C323.171600,864.562378 319.480377,855.714600 315.327271,846.224854 
M151.209396,795.282776 
	C146.733032,794.094971 145.632523,791.206055 145.798691,786.696228 
	C146.221878,775.211487 146.114761,763.705444 146.099640,752.208130 
	C146.097610,750.660950 145.890518,748.231445 144.949448,747.711670 
	C138.959366,744.404053 132.736679,741.517639 126.568092,738.481384 
	C126.101105,739.609009 125.982300,739.762695 125.981369,739.916992 
	C125.769608,775.068726 125.548813,810.220459 125.429901,845.372559 
	C125.425468,846.682007 126.046967,848.680481 127.002151,849.193481 
	C132.662125,852.233459 138.506882,854.929382 145.582214,858.369446 
	C145.582214,843.027893 145.582214,829.012451 145.582214,814.088989 
	C148.214218,815.143982 149.744095,815.656433 151.186142,816.351257 
	C161.543167,821.340576 171.809677,826.526367 182.266861,831.294678 
	C185.888031,832.945923 187.050369,835.045959 186.882401,838.950867 
	C186.381393,850.597900 186.242188,862.261841 186.084747,873.920898 
	C186.063919,875.463257 186.263718,877.893311 187.200211,878.419495 
	C193.064316,881.714966 199.166504,884.586792 206.351501,888.179688 
	C206.351501,881.345703 206.228439,875.889771 206.371979,870.440918 
	C207.152893,840.798340 208.017700,811.158081 208.764572,781.514709 
	C208.798416,780.171570 208.373825,778.049255 207.480072,777.574280 
	C201.404022,774.344604 195.144516,771.460022 187.779861,767.901489 
	C187.779861,776.324646 187.779861,783.295654 187.779861,790.266663 
	C187.779861,797.377136 187.779861,804.487610 187.779861,812.919189 
	C174.862747,806.696289 163.374374,801.161743 151.209396,795.282776 
z"/>
<path fill="#FBFBFF" opacity="1.000000" stroke="none" 
	d="
M315.480469,846.565735 
	C319.480377,855.714600 323.171600,864.562378 323.137695,875.245300 
	C315.912628,871.790344 309.260773,868.803955 302.846252,865.373596 
	C301.602814,864.708679 301.056122,862.377319 300.576874,860.703308 
	C296.102478,845.074341 286.589355,834.019531 271.160767,828.490906 
	C259.221222,824.212585 250.938110,828.607056 247.381104,840.780945 
	C240.730042,863.544250 250.624588,888.788635 270.586975,899.956482 
	C271.747101,900.605530 272.934814,901.217957 274.152405,901.749573 
	C286.341858,907.072754 293.383118,904.842896 300.384796,893.003296 
	C306.988159,896.234070 313.710052,899.388245 320.242310,902.895630 
	C321.024689,903.315674 321.278778,905.790649 320.929321,907.083923 
	C316.878632,922.075317 303.295380,930.460266 287.909180,927.322144 
	C264.680908,922.584534 248.212311,908.498474 236.339355,888.701660 
	C224.834579,869.518860 220.674652,848.789185 225.990540,826.794250 
	C230.541061,807.966125 245.402420,799.049988 264.253967,803.732239 
	C284.154572,808.675110 298.807129,821.058228 310.195221,837.664062 
	C312.073395,840.402771 313.624817,843.365601 315.480469,846.565735 
z"/>
<path fill="#FCFCFF" opacity="1.000000" stroke="none" 
	d="
M151.547699,795.454956 
	C163.374374,801.161743 174.862747,806.696289 187.779861,812.919189 
	C187.779861,804.487610 187.779861,797.377136 187.779861,790.266663 
	C187.779861,783.295654 187.779861,776.324646 187.779861,767.901489 
	C195.144516,771.460022 201.404022,774.344604 207.480072,777.574280 
	C208.373825,778.049255 208.798416,780.171570 208.764572,781.514709 
	C208.017700,811.158081 207.152893,840.798340 206.371979,870.440918 
	C206.228439,875.889771 206.351501,881.345703 206.351501,888.179688 
	C199.166504,884.586792 193.064316,881.714966 187.200211,878.419495 
	C186.263718,877.893311 186.063919,875.463257 186.084747,873.920898 
	C186.242188,862.261841 186.381393,850.597900 186.882401,838.950867 
	C187.050369,835.045959 185.888031,832.945923 182.266861,831.294678 
	C171.809677,826.526367 161.543167,821.340576 151.186142,816.351257 
	C149.744095,815.656433 148.214218,815.143982 145.582214,814.088989 
	C145.582214,829.012451 145.582214,843.027893 145.582214,858.369446 
	C138.506882,854.929382 132.662125,852.233459 127.002151,849.193481 
	C126.046967,848.680481 125.425468,846.682007 125.429901,845.372559 
	C125.548813,810.220459 125.769608,775.068726 125.981369,739.916992 
	C125.982300,739.762695 126.101105,739.609009 126.568092,738.481384 
	C132.736679,741.517639 138.959366,744.404053 144.949448,747.711670 
	C145.890518,748.231445 146.097610,750.660950 146.099640,752.208130 
	C146.114761,763.705444 146.221878,775.211487 145.798691,786.696228 
	C145.632523,791.206055 146.733032,794.094971 151.547699,795.454956 
z"/>
</svg>